# Blender 4.0.2
# www.blender.org
mtllib fleche-bas.mtl
o Plane
v -1.003691 -0.000101 -0.996295
v -0.996295 -0.000102 1.003691
v 0.996295 0.000102 -1.003691
v 1.003691 0.000101 0.996295
v -0.996295 -0.000102 1.003691
v 1.003691 0.000101 0.996295
v -1.637223 -0.000167 1.006061
v 1.644619 0.000166 0.993925
v 1.003691 0.000101 0.996295
v 0.027397 0.000000 2.992277
v 0.027397 0.000000 2.992277
v 0.027397 0.000000 2.992277
v 0.027397 0.000000 2.992277
v -1.018427 -0.000099 -4.980984
v 0.981559 0.000103 -4.988379
v -1.003829 1.358722 -0.996294
v -0.996433 1.358722 1.003692
v 0.996157 1.358925 -1.003690
v 1.003554 1.358924 0.996296
v -0.996433 1.358722 1.003692
v 1.003554 1.358924 0.996296
v -1.637361 1.358657 1.006063
v 1.644482 1.358989 0.993926
v 1.003554 1.358924 0.996296
v 0.027259 1.358824 2.992278
v 0.027259 1.358824 2.992278
v 0.027259 1.358824 2.992278
v 0.027259 1.358824 2.992278
v -1.018565 1.358724 -4.980983
v 0.981422 1.358927 -4.988379
vn 0.0001 -1.0000 -0.0000
vn -0.0001 1.0000 -0.0000
vn -0.7773 -0.0001 -0.6291
vn 1.0000 0.0001 -0.0037
vn 0.7664 0.0001 -0.6423
vn 0.0037 -0.0000 1.0000
vn -0.8983 -0.0001 -0.4394
vn -0.8891 -0.0001 0.4577
vn -0.0037 -0.0000 -1.0000
vn -1.0000 -0.0001 0.0037
vt 0.000000 0.000000
vt 0.000000 1.000000
vt 1.000000 1.000000
vt 1.000000 0.000000
s 0
f 1/1/1 3/2/1 4/3/1 2/4/1
f 4/3/2 6/3/2 5/4/2 2/4/2
f 7/1/2 11/1/2 12/1/2 8/1/2
f 1/1/1 14/1/1 15/2/1 3/2/1
f 16/1/2 17/4/2 19/3/2 18/2/2
f 19/3/2 17/4/2 20/4/2 21/3/2
f 22/1/1 23/1/1 27/1/1 26/1/1
f 16/1/2 18/2/2 30/2/2 29/1/2
f 8/1/3 12/1/3 27/1/3 23/1/3
f 4/3/4 3/2/4 18/2/4 19/3/4
f 11/1/5 7/1/5 22/1/5 26/1/5
f 5/4/6 6/3/6 21/3/6 20/4/6
f 9/1/7 13/1/7 28/1/7 24/1/7
f 2/4/2 5/4/2 20/4/2 17/4/2
f 5/1/8 10/1/8 25/1/8 20/1/8
f 6/3/2 4/3/2 19/3/2 21/3/2
f 15/2/9 14/1/9 29/1/9 30/2/9
f 7/1/6 8/1/6 23/1/6 22/1/6
f 3/2/4 15/2/4 30/2/4 18/2/4
f 6/1/2 9/1/2 24/1/2 21/1/2
f 1/1/10 2/4/10 17/4/10 16/1/10
f 14/1/10 1/1/10 16/1/10 29/1/10
f 12/1/2 11/1/2 26/1/2 27/1/2
